<svg xmlns="http://www.w3.org/2000/svg" xmlns:xlink="http://www.w3.org/1999/xlink" version="1.1" width="256" height="256" viewBox="0 0 256 256" xml:space="preserve">

<defs>
</defs>
<g style="stroke: none; stroke-width: 0; stroke-dasharray: none; stroke-linecap: butt; stroke-linejoin: miter; stroke-miterlimit: 10; fill: none; fill-rule: nonzero; opacity: 1;" transform="translate(1.4065934065934016 1.4065934065934016) scale(2.81 2.81)" >
	<path d="M 45 0 C 20.187 0 0 20.187 0 45 c 0 24.813 20.187 45 45 45 c 24.813 0 45 -20.187 45 -45 C 90 20.187 69.813 0 45 0 z M 45 84 C 23.495 84 6 66.505 6 45 S 23.495 6 45 6 s 39 17.495 39 39 S 66.505 84 45 84 z" style="stroke: none; stroke-width: 1; stroke-dasharray: none; stroke-linecap: butt; stroke-linejoin: miter; stroke-miterlimit: 10; fill: rgb(0,0,0); fill-rule: nonzero; opacity: 1;" transform=" matrix(1 0 0 1 0 0) " stroke-linecap="round" />
	<path d="M 63.685 46.09 c 0.018 -0.046 0.039 -0.091 0.055 -0.138 c 0.056 -0.168 0.1 -0.338 0.125 -0.511 c 0.003 -0.022 0.002 -0.044 0.005 -0.065 c 0.019 -0.152 0.026 -0.306 0.022 -0.459 c -0.002 -0.057 -0.008 -0.114 -0.013 -0.172 c -0.011 -0.126 -0.029 -0.25 -0.056 -0.374 c -0.012 -0.055 -0.023 -0.11 -0.038 -0.164 c -0.044 -0.161 -0.1 -0.32 -0.172 -0.473 c -0.005 -0.011 -0.007 -0.023 -0.013 -0.035 c -0.001 -0.002 -0.003 -0.004 -0.004 -0.006 c -0.071 -0.146 -0.153 -0.288 -0.248 -0.423 l -15.899 -22.5 C 46.888 19.973 45.974 19.5 45 19.5 s -1.888 0.473 -2.45 1.269 l -15.899 22.5 c -0.095 0.135 -0.176 0.275 -0.247 0.42 c -0.002 0.003 -0.004 0.006 -0.006 0.009 c -0.008 0.017 -0.011 0.035 -0.019 0.053 c -0.067 0.147 -0.121 0.297 -0.164 0.45 c -0.016 0.059 -0.028 0.118 -0.041 0.177 c -0.025 0.119 -0.043 0.238 -0.054 0.359 c -0.005 0.061 -0.012 0.122 -0.014 0.184 c -0.004 0.147 0.004 0.293 0.021 0.439 c 0.003 0.028 0.002 0.056 0.006 0.084 c 0.026 0.172 0.069 0.341 0.125 0.507 c 0.016 0.049 0.039 0.095 0.057 0.144 c 0.045 0.116 0.096 0.229 0.156 0.339 c 0.031 0.056 0.064 0.111 0.098 0.165 c 0.028 0.044 0.049 0.091 0.079 0.133 l 15.899 22.5 C 43.112 70.027 44.026 70.5 45 70.5 s 1.888 -0.473 2.45 -1.269 l 15.899 -22.5 c 0.03 -0.043 0.051 -0.089 0.079 -0.133 c 0.034 -0.055 0.068 -0.109 0.099 -0.166 C 63.588 46.321 63.64 46.207 63.685 46.09 z M 45 27.698 l 11.403 16.138 L 45 49.332 l -11.404 -5.496 L 45 27.698 z M 45 62.302 l -6.761 -9.568 l 5.459 2.631 c 0.411 0.198 0.857 0.298 1.302 0.298 s 0.891 -0.1 1.303 -0.298 l 5.458 -2.63 L 45 62.302 z" style="stroke: none; stroke-width: 1; stroke-dasharray: none; stroke-linecap: butt; stroke-linejoin: miter; stroke-miterlimit: 10; fill: rgb(0,0,0); fill-rule: nonzero; opacity: 1;" transform=" matrix(1 0 0 1 0 0) " stroke-linecap="round" />
</g>
</svg>